<?xml version="1.0" encoding="UTF-8"?>
<!DOCTYPE svg PUBLIC "-//W3C//DTD SVG 1.1//EN" "http://www.w3.org/Graphics/SVG/1.1/DTD/svg11.dtd">
<!-- Creator: CorelDRAW 2018 (64-Bit) -->
<svg xmlns="http://www.w3.org/2000/svg" xml:space="preserve" width="3000px" height="3891px" version="1.1" style="shape-rendering:geometricPrecision; text-rendering:geometricPrecision; image-rendering:optimizeQuality; fill-rule:evenodd; clip-rule:evenodd"
viewBox="0 0 3000 3890.806"
 xmlns:xlink="http://www.w3.org/1999/xlink">
 <defs>
  <style type="text/css">
   <![CDATA[
    .fil0 {fill:none}
    .fil1 {fill:black;fill-rule:nonzero}
   ]]>
  </style>
 </defs>
 <g id="Layer_x0020_1">
  <metadata id="CorelCorpID_0Corel-Layer"/>
  <rect class="fil0" width="3000" height="3890.806"/>
  <g id="_2292361107216">
   <path class="fil1" d="M455.51 2941.322l0 89.828 -34.499 0 0 -274.433 78.567 0c22.913,3.059 42.051,12.368 57.412,27.861 17.901,17.9 26.883,39.316 26.883,64.246 0,25.061 -9.112,46.737 -27.273,65.028 -18.161,18.292 -40.554,27.47 -67.112,27.47l-33.978 0zm0 -154.466l0 124.328 33.978 0c16.014,0 30.008,-5.924 41.921,-17.836 11.977,-11.847 17.965,-26.689 17.965,-44.524 0,-17.64 -5.988,-32.416 -17.965,-44.198 -11.913,-11.847 -25.907,-17.77 -41.921,-17.77l-33.978 0zm316.629 -30.139l0 29.944 -114.825 0 0 92.302 114.825 0 0 29.942 -114.825 0 0 92.302 114.825 0 0 29.943 -149.324 0 0 -274.433 149.324 0zm82.228 30.139l0 124.328 33.979 0c16.013,0 30.008,-5.924 41.92,-17.836 11.977,-11.847 17.965,-26.689 17.965,-44.524 0,-17.64 -5.988,-32.416 -17.965,-44.198 -11.912,-11.847 -25.907,-17.77 -41.92,-17.77l-33.979 0zm32.287 154.466l-32.287 0 0 89.828 -34.499 0 0 -274.433 78.567 0c22.913,3.059 42.051,12.368 57.412,27.861 17.901,17.9 26.884,39.316 26.884,64.246 0,25.061 -9.178,46.802 -27.665,65.223 -12.172,12.368 -22.977,19.659 -32.416,21.937l61.643 95.166 -39.902 0 -57.737 -89.828zm212.87 -54.549c-19.724,-6.444 -35.541,-15.687 -47.453,-27.664 -11.977,-11.912 -17.966,-26.363 -17.966,-43.287 0,-16.533 6.184,-31.05 18.617,-43.548 12.368,-12.498 27.795,-18.811 46.216,-18.811 18.226,0 33.783,6.444 46.737,19.267 6.769,6.64 12.042,15.883 15.817,27.86l-30.853 12.042c-3.842,-10.35 -7.291,-16.989 -10.351,-20.048 -6.184,-6.38 -13.344,-9.569 -21.35,-9.569 -7.877,0 -14.906,3.125 -21.025,9.309 -6.184,6.118 -9.309,13.995 -9.309,23.498 0,9.439 3.19,17.445 9.569,24.02 6.64,6.378 15.623,12.237 27.079,17.575 21.871,7.094 40.163,18.03 54.939,32.806 16.924,16.794 25.321,36.583 25.321,59.495 0,22.913 -8.332,42.702 -25.061,59.431 -16.729,16.663 -37.234,25.06 -61.513,25.06 -24.41,0 -45.044,-8.592 -61.969,-25.777 -13.213,-13.083 -21.35,-30.073 -24.41,-50.902l33.198 -11.977c2.017,19.918 7.681,34.499 16.989,43.612 10.154,10.22 22.197,15.297 36.192,15.297 14.125,0 26.428,-5.273 36.908,-15.752 10.48,-10.48 15.752,-23.499 15.752,-38.992 0,-15.491 -5.142,-28.445 -15.427,-38.73 -10.48,-10.284 -22.652,-18.356 -36.647,-24.215zm272.17 -130.056l0 29.944 -114.825 0 0 92.302 114.825 0 0 29.942 -114.825 0 0 92.302 114.825 0 0 29.943 -149.324 0 0 -274.433 149.324 0zm82.228 184.605l0 89.828 -34.499 0 0 -274.433 78.567 0c22.913,3.059 42.051,12.368 57.412,27.861 17.901,17.9 26.883,39.316 26.883,64.246 0,25.061 -9.112,46.737 -27.273,65.028 -18.161,18.292 -40.553,27.47 -67.112,27.47l-33.978 0zm0 -154.466l0 124.328 33.978 0c16.014,0 30.009,-5.924 41.921,-17.836 11.977,-11.847 17.965,-26.689 17.965,-44.524 0,-17.64 -5.988,-32.416 -17.965,-44.198 -11.912,-11.847 -25.907,-17.77 -41.921,-17.77l-33.978 0zm198.42 122.049l0 122.245 -34.564 0 0 -274.433 34.564 0 0 122.246 112.677 0 0 -122.246 34.499 0 0 274.433 -34.499 0 0 -122.245 -112.677 0zm324.635 -155.962c39.903,0 73.685,13.798 101.35,41.528 27.665,27.731 41.464,60.732 41.464,99.007 0,38.535 -13.799,71.602 -41.464,99.267 -27.665,27.6 -61.447,41.464 -101.35,41.464 -39.772,0 -73.49,-13.864 -101.155,-41.464 -27.664,-27.665 -41.464,-60.732 -41.464,-99.267 0,-38.275 13.8,-71.276 41.464,-99.007 27.665,-27.73 61.383,-41.528 101.155,-41.528zm0 30.072c-29.227,0 -54.548,10.741 -75.898,32.156 -21.351,21.416 -32.026,47.518 -32.026,78.307 0,30.985 10.675,57.217 32.026,78.568 21.35,21.35 46.671,32.025 75.898,32.025 29.357,0 54.743,-10.675 76.094,-32.025 21.351,-21.351 32.026,-47.583 32.026,-78.568 0,-30.789 -10.675,-56.891 -32.026,-78.307 -21.351,-21.415 -46.737,-32.156 -76.094,-32.156zm214.627 -26.298l156.354 219.299 0 -219.299 34.499 0 0 274.433 -38.144 0 -152.318 -213.766 0 213.766 -34.564 0 0 -274.433 34.173 0zm387.385 0l0 29.944 -114.824 0 0 92.302 114.824 0 0 29.942 -114.824 0 0 92.302 114.824 0 0 29.943 -149.324 0 0 -274.433 149.324 0zm-1899.063 541.836l-26.363 -72.84 -26.493 72.84 52.856 0zm-11.261 -130.642l99.332 274.433 -35.866 0 -41.335 -114.043 -74.596 0 -42.116 114.043 -36.061 0 100.699 -274.433 29.943 0zm133.196 232.448c7.03,0 12.824,2.278 17.445,6.769 4.622,4.557 6.965,9.634 6.965,15.362 0,5.729 -2.343,10.871 -6.965,15.362 -4.621,4.492 -10.415,6.77 -17.445,6.77 -7.225,0 -13.148,-2.278 -17.705,-6.77 -4.622,-4.491 -6.9,-9.633 -6.9,-15.362 0,-5.728 2.278,-10.805 6.9,-15.362 4.557,-4.491 10.48,-6.769 17.705,-6.769zm242.619 12.042c15.882,0 29.813,-5.923 41.659,-17.836 11.912,-11.911 17.835,-26.688 17.835,-44.328 0,-17.705 -5.923,-32.481 -17.835,-44.458 -11.846,-11.913 -25.777,-17.901 -41.659,-17.901l-49.992 0 0 124.523 49.992 0zm-49.992 -214.743l0 60.277 55.329 0c7.485,-0.781 13.279,-3.255 17.38,-7.42 5.598,-5.469 8.397,-12.824 8.397,-21.937 0,-8.918 -2.929,-16.274 -8.787,-22.132 -5.859,-5.859 -12.498,-8.788 -19.854,-8.788l-52.465 0zm98.03 73.035c4.231,1.042 10.741,6.054 19.658,15.102 17.836,17.77 26.689,39.251 26.689,64.442 0,24.931 -9.179,46.606 -27.665,65.028 -14.841,14.971 -33.654,24.02 -56.436,27.079l-94.775 0 0 -274.433 87.159 0c17.901,0 32.938,6.054 44.98,18.096 12.107,12.108 18.161,26.297 18.161,42.571 0,16.403 -5.924,30.463 -17.771,42.115zm236.955 -102.782l34.565 0 0 194.172c-2.93,21.481 -12.173,39.968 -27.665,55.46 -17.966,18.031 -40.097,27.079 -66.59,27.079 -26.689,0 -49.146,-9.113 -67.307,-27.339 -18.161,-18.291 -27.274,-39.903 -27.274,-64.963l0 -184.409 34.5 0 0 184.409c0,17.575 5.989,32.351 17.966,44.328 11.911,12.042 25.972,18.031 42.115,18.031 16.012,0 30.008,-5.989 41.855,-18.031 11.912,-11.977 17.835,-26.753 17.835,-44.328l0 -184.409zm116.793 30.138l0 124.328 33.978 0c16.013,0 30.008,-5.923 41.921,-17.836 11.977,-11.847 17.965,-26.688 17.965,-44.523 0,-17.64 -5.988,-32.416 -17.965,-44.199 -11.913,-11.847 -25.908,-17.77 -41.921,-17.77l-33.978 0zm32.286 154.466l-32.286 0 0 89.829 -34.499 0 0 -274.433 78.567 0c22.913,3.059 42.051,12.368 57.412,27.86 17.901,17.901 26.883,39.316 26.883,64.247 0,25.06 -9.177,46.801 -27.664,65.223 -12.172,12.368 -22.978,19.659 -32.416,21.937l61.643 95.166 -39.902 0 -57.738 -89.829zm370.005 52.465c-28.055,26.949 -60.731,40.423 -98.03,40.423 -39.902,0 -73.62,-13.8 -101.155,-41.269 -27.534,-27.534 -41.269,-60.602 -41.269,-99.072 0,-38.145 13.735,-71.082 41.269,-98.812 27.535,-27.729 61.253,-41.594 101.155,-41.594 37.168,0 71.147,14.126 102.066,42.375l-24.02 21.352c-25.19,-22.263 -51.228,-33.393 -78.046,-33.393 -29.227,0 -54.483,10.675 -75.768,31.961 -21.286,21.284 -31.961,47.322 -31.961,78.111 0,30.984 10.675,57.152 31.961,78.372 21.285,21.221 46.541,31.831 75.768,31.831 25.061,0 46.281,-6.965 63.726,-20.96l0 -83.58 34.304 0 0 94.255zm193.994 -237.069l0 29.943 -114.825 0 0 92.302 114.825 0 0 29.942 -114.825 0 0 92.303 114.825 0 0 29.943 -149.324 0 0 -274.433 149.324 0zm123.822 130.056c-19.723,-6.444 -35.541,-15.687 -47.452,-27.665 -11.977,-11.911 -17.966,-26.362 -17.966,-43.287 0,-16.533 6.184,-31.049 18.617,-43.547 12.367,-12.498 27.795,-18.812 46.216,-18.812 18.225,0 33.782,6.444 46.737,19.268 6.769,6.639 12.042,15.882 15.817,27.859l-30.854 12.043c-3.841,-10.35 -7.291,-16.989 -10.35,-20.048 -6.184,-6.38 -13.344,-9.569 -21.35,-9.569 -7.877,0 -14.907,3.124 -21.025,9.308 -6.184,6.118 -9.309,13.995 -9.309,23.498 0,9.439 3.19,17.446 9.569,24.02 6.64,6.379 15.623,12.238 27.079,17.575 21.871,7.095 40.162,18.031 54.938,32.807 16.925,16.794 25.322,36.582 25.322,59.495 0,22.912 -8.332,42.701 -25.061,59.43 -16.729,16.664 -37.234,25.061 -61.513,25.061 -24.41,0 -45.044,-8.592 -61.969,-25.777 -13.213,-13.083 -21.35,-30.073 -24.41,-50.902l33.198 -11.978c2.017,19.919 7.68,34.5 16.989,43.613 10.154,10.219 22.196,15.296 36.192,15.296 14.125,0 26.428,-5.272 36.907,-15.752 10.481,-10.48 15.753,-23.499 15.753,-38.991 0,-15.492 -5.142,-28.446 -15.427,-38.731 -10.48,-10.284 -22.652,-18.355 -36.648,-24.214zm198.94 0c-19.723,-6.444 -35.54,-15.687 -47.452,-27.665 -11.977,-11.911 -17.966,-26.362 -17.966,-43.287 0,-16.533 6.184,-31.049 18.617,-43.547 12.368,-12.498 27.795,-18.812 46.216,-18.812 18.226,0 33.783,6.444 46.737,19.268 6.769,6.639 12.042,15.882 15.817,27.859l-30.853 12.043c-3.842,-10.35 -7.291,-16.989 -10.351,-20.048 -6.184,-6.38 -13.343,-9.569 -21.35,-9.569 -7.876,0 -14.906,3.124 -21.025,9.308 -6.184,6.118 -9.309,13.995 -9.309,23.498 0,9.439 3.19,17.446 9.569,24.02 6.64,6.379 15.623,12.238 27.079,17.575 21.871,7.095 40.163,18.031 54.938,32.807 16.925,16.794 25.322,36.582 25.322,59.495 0,22.912 -8.332,42.701 -25.061,59.43 -16.729,16.664 -37.234,25.061 -61.513,25.061 -24.41,0 -45.044,-8.592 -61.969,-25.777 -13.213,-13.083 -21.35,-30.073 -24.409,-50.902l33.197 -11.978c2.018,19.919 7.681,34.5 16.989,43.613 10.155,10.219 22.197,15.296 36.192,15.296 14.125,0 26.428,-5.272 36.907,-15.752 10.481,-10.48 15.754,-23.499 15.754,-38.991 0,-15.492 -5.143,-28.446 -15.428,-38.731 -10.48,-10.284 -22.652,-18.355 -36.648,-24.214z"/>
   <path class="fil1" d="M445.402 445.402l1581.897 0c303.482,0 551.785,248.303 551.785,551.785 0,247.103 -164.621,457.608 -389.603,527.3 224.982,69.692 389.603,280.197 389.603,527.299 0,303.483 -248.303,551.786 -551.785,551.786l-527.299 0c-13.524,0 -24.486,-10.963 -24.486,-24.486l0 -995.488 -1012.8 1012.8c-9.561,9.56 -25.064,9.56 -34.625,0 -5.318,-5.318 -7.676,-12.472 -7.078,-19.422l0 -1050.339c-0.062,-0.709 -0.095,-1.425 -0.095,-2.15l0 -1054.599c0,-13.523 10.963,-24.486 24.486,-24.486zm24.39 2074.667l971.096 -971.095 -971.096 0 0 971.095zm1557.507 -971.095l-502.813 0 0 1005.625 502.813 0c276.547,0 502.812,-226.265 502.812,-502.812 0,-276.548 -226.265,-502.813 -502.812,-502.813zm0 -1054.599l-1557.41 0 0 1005.626 1030.111 0 527.299 0c276.547,0 502.812,-226.266 502.812,-502.812 0,-276.549 -226.265,-502.814 -502.812,-502.814z"/>
  </g>
 </g>
</svg>
